<svg id="Capa_1" enable-background="new 0 0 503.8 503.8" height="512" viewBox="0 0 503.8 503.8" width="512" xmlns="http://www.w3.org/2000/svg"><g><g><g><path d="m371.313 90.992c-35.999-.127-71.369-5.584-105.252-18.007-20.458-7.501-42.561-11.593-65.621-11.585-103.32.032-188.352 83.331-190.401 186.631-2.122 106.981 83.965 194.37 190.463 194.37 52.367 0 99.793-21.133 134.225-55.333 25.364-25.194 54.535-46.407 87.067-61.231 42.96-19.577 72.674-63.162 71.996-113.609-.899-66.737-55.735-121.001-122.477-121.236z" fill="#fff"/></g><circle cx="230.235" cy="221.412" fill="#ffc144" r="92.005"/></g><g><path d="m371.344 80.992c-34.873-.2-69.003-5.356-101.84-17.396-22.075-8.094-45.288-12.197-69.002-12.197-.021 0-.045 0-.065 0-52.608.017-102.389 20.419-140.173 57.449-37.792 37.037-59.18 86.396-60.223 138.985-1.078 54.356 19.264 105.646 57.278 144.422 38.024 38.786 88.875 60.146 143.183 60.146 52.182 0 101.602-19.946 139.153-56.165 9.243-8.913-4.631-23.325-13.884-14.396-33.805 32.604-78.293 50.56-125.27 50.56-48.891 0-94.669-19.23-128.901-54.148-34.222-34.907-52.534-81.084-51.563-130.024.938-47.321 20.196-91.748 54.225-125.097 34.025-33.346 78.837-51.718 126.181-51.733h.058c21.357 0 42.256 3.692 62.118 10.974 34.993 12.831 71.478 18.494 108.659 18.619 61.216.215 111.688 50.176 112.512 111.37.603 44.819-25.36 85.789-66.143 104.375-8.786 4.003-17.551 8.564-26.052 13.556-11.072 6.502-.96 23.757 10.127 17.246 7.909-4.644 16.057-8.884 24.218-12.603 48-21.875 78.558-70.094 77.848-122.844-.969-72.034-60.381-130.846-132.444-131.099z"/><path d="m332.241 221.412c0-56.246-45.759-102.005-102.005-102.005s-102.006 45.759-102.006 102.005 45.759 102.005 102.005 102.005 102.006-45.758 102.006-102.005zm-184.011 0c0-45.218 36.788-82.005 82.005-82.005s82.005 36.788 82.005 82.005-36.788 82.005-82.005 82.005-82.005-36.787-82.005-82.005z"/><path d="m373.085 358.022c-2.097-5.03-8.009-7.492-13.05-5.41-5.039 2.081-7.488 8.03-5.41 13.06 2.081 5.039 8.017 7.488 13.05 5.41 5.054-2.087 7.476-8.017 5.41-13.06z"/></g></g></svg>